<?xml version="1.0" encoding="utf-8"?>
<!-- Generator: Adobe Illustrator 16.0.0, SVG Export Plug-In . SVG Version: 6.00 Build 0)  -->
<!DOCTYPE svg PUBLIC "-//W3C//DTD SVG 1.1//EN" "http://www.w3.org/Graphics/SVG/1.1/DTD/svg11.dtd">
<svg version="1.1" id="Calque_1" xmlns="http://www.w3.org/2000/svg" xmlns:xlink="http://www.w3.org/1999/xlink" x="0px" y="0px"
	 width="1530.709px" height="1530.709px" viewBox="0 0 1530.709 1530.709" enable-background="new 0 0 1530.709 1530.709"
	 xml:space="preserve">
<g id="city">
	<rect x="1275.939" y="1219.945" fill="#EBEBEB" width="101.394" height="0.766"/>
	<rect x="987.4" y="1228.272" fill="#EBEBEB" width="26.604" height="0.766"/>
	<rect x="1214.128" y="1191.535" fill="#EBEBEB" width="58.749" height="0.765"/>
	<rect x="160.602" y="1196.678" fill="#EBEBEB" width="132.223" height="0.766"/>
	<rect x="320.102" y="1196.678" fill="#EBEBEB" width="19.379" height="0.766"/>
	<rect x="402.485" y="1209.598" fill="#EBEBEB" width="286.794" height="0.765"/>
	<path fill="#EBEBEB" d="M725.556,1034.148H134.457c-9.654,0-17.48-7.827-17.48-17.481V185.705
		c0.084-9.594,7.886-17.327,17.48-17.327h591.099c9.655,0,17.481,7.826,17.481,17.48l0,0v830.808
		C743.037,1026.321,735.211,1034.148,725.556,1034.148z M134.457,168.99c-9.225,0.017-16.698,7.49-16.715,16.715v830.961
		c0.017,9.225,7.49,16.699,16.715,16.716h591.099c9.226-0.017,16.699-7.491,16.716-16.716V185.705
		c-0.017-9.225-7.49-16.698-16.716-16.715H134.457z"/>
	<path fill="#EBEBEB" d="M1387.772,1034.148h-591.16c-9.647-0.017-17.464-7.834-17.48-17.481V185.705
		c0.101-9.587,7.893-17.312,17.48-17.327h591.16c9.571,0.033,17.336,7.757,17.42,17.327v830.961
		C1405.192,1026.297,1397.403,1034.114,1387.772,1034.148z M796.612,168.99c-9.225,0.017-16.698,7.49-16.715,16.715v830.961
		c0.017,9.225,7.49,16.699,16.715,16.716h591.16c9.225-0.017,16.699-7.491,16.716-16.716V185.705
		c-0.017-9.225-7.491-16.698-16.716-16.715H796.612z"/>
	<rect x="0" y="1170.687" fill="#EBEBEB" width="1530.709" height="0.766"/>
	<polygon fill="#E0E0E0" points="1191.963,777.906 1191.963,752.528 1218.813,752.528 1218.813,682.268 1227.599,682.268 
		1227.599,752.528 1254.416,752.528 1254.416,777.906 1267.121,777.906 1267.121,1171.361 1179.289,1171.361 1179.289,777.906 	"/>
	<path fill="#EBEBEB" d="M947.295,811.49v359.87h123.191V838.828l-22.257-27.369L947.295,811.49z M1039.352,1069.568h20.971v20.972
		h-20.971V1069.568z M1039.352,1027.626h20.971v20.971h-20.971V1027.626z M1039.352,943.713h20.971v20.971h-20.971V943.713z
		 M1039.352,901.772h20.971v20.971h-20.971V901.772z M1039.352,859.83h20.971v20.971h-20.971V859.83z M997.38,1027.626h21.001
		v20.971H997.38V1027.626z M997.38,985.685h21.001v20.971H997.38V985.685z M997.38,943.713h21.001v20.971H997.38V943.713z
		 M955.438,1069.568h20.972v20.971h-20.972V1069.568z M955.438,985.685h20.972v20.971h-20.972V985.685z M955.438,943.713h20.972
		v20.971h-20.972V943.713z M955.438,859.83h20.972v20.971h-20.972V859.83z"/>
	<path fill="#EBEBEB" d="M392.994,1171.361l37.809-0.46l-2.725-135.528l-0.551-31.41v-1.898l-0.49-27.981v-1.837l-0.429-26.573
		v-1.745l-0.459-25.349v-1.652l-0.398-24.186v-1.562l-0.429-23.053v-1.53l-0.367-22.073v-1.438l-0.337-19.165
		c-0.938,0.725-1.967,1.322-3.062,1.776l0.215,13.929l-13.011-11.878c-1.655-0.075-3.303-0.27-4.93-0.582l15.798,14.45h-19.594
		v-15.46c-1.083-0.319-2.114-0.794-3.062-1.408l-0.184,18.368v1.408l-0.214,22.104v1.47l-0.245,23.145v1.53l-0.214,24.216v1.439
		l-0.215,25.349v1.745l-0.275,26.634v1.807l-0.275,28.012v1.898l-0.429,31.502L392.994,1171.361z M398.964,1004.91h22.593
		l-22.746,24.492L398.964,1004.91z M399.331,978.522l22.379,23.48h-22.532L399.331,978.522z M399.056,945.183h21.43l-21.552,22.226
		L399.056,945.183z M399.301,920.906l21.43,21.43h-21.43V920.906z M399.485,892.587h20.512l-20.635,20.175L399.485,892.587z
		 M399.668,870.147l20.328,19.471h-20.481L399.668,870.147z M419.476,844.768l-19.716,18.369v-18.369H419.476z M422.384,867.362
		h-20.021l19.746-18.369L422.384,867.362z M422.69,889.771l-20.297-19.379h20.021L422.69,889.771z M423.088,917.691h-20.91
		l20.665-20.205L423.088,917.691z M423.425,941.876l-21.431-21.216h21.002L423.425,941.876z M423.823,972.49h-21.98l21.675-22.287
		L423.823,972.49z M424.068,998.819l-22.379-23.39h22.073L424.068,998.819z M424.251,1031.086h-23.205l22.776-24.706
		L424.251,1031.086z"/>
	<path fill="#EBEBEB" d="M397.097,825.726c0.96,0.591,1.988,1.063,3.062,1.408v-2.296l3.673,3.367
		c1.624,0.338,3.272,0.542,4.93,0.612l-9.185-8.266l-1.071,0.979h-1.531L397.097,825.726z M421.588,821.655v5.082
		c1.107-0.428,2.14-1.027,3.062-1.775v-3.307H421.588z"/>
	<path fill="#EBEBEB" d="M392.688,819.022c-0.214,1.668,0.377,3.338,1.592,4.5l1.041,0.979c0.557,0.457,1.151,0.866,1.776,1.225
		c0.96,0.591,1.988,1.063,3.062,1.408c1.185,0.479,2.416,0.839,3.673,1.071c1.624,0.338,3.272,0.542,4.93,0.612h2.234
		c3.62,0.011,7.203-0.719,10.531-2.143c1.107-0.428,2.141-1.027,3.062-1.775l0.245-0.184l1.01-0.949
		c1.152-1.146,1.687-2.772,1.439-4.378l-2.266-12.582h5.939l-20.727-10.379l-21.43,9.827h6.123L392.688,819.022z"/>
	<path fill="#EBEBEB" d="M438.823,894.24v277.12H558.74V894.24H438.823z M526.258,1091.304h16.623v14.297h-16.623V1091.304z
		 M526.258,987.216h16.623v14.297h-16.623V987.216z M526.258,935.172h16.623v14.327h-16.623V935.172z M490.47,1065.374h16.623
		v14.327H490.47V1065.374z M490.47,1013.329h16.623v14.328H490.47V1013.329z M490.47,961.285h16.623v14.297H490.47V961.285z
		 M490.47,909.241h16.623v14.297H490.47V909.241z M454.682,1091.519h16.776v14.297h-16.623L454.682,1091.519z M454.682,1065.466
		h16.776v14.327h-16.623L454.682,1065.466z M454.682,987.369h16.776v14.297h-16.623L454.682,987.369z M454.682,961.317h16.776
		v14.297h-16.623L454.682,961.317z"/>
	<polygon fill="#F5F5F5" points="814.429,1171.361 695.033,1171.361 695.033,961.072 814.429,915.885 	"/>
	<rect x="745.914" y="959.51" fill="#FFFFFF" width="17.604" height="17.604"/>
	<rect x="783.815" y="959.51" fill="#FFFFFF" width="17.604" height="17.604"/>
	<rect x="708.045" y="991.563" fill="#FFFFFF" width="17.604" height="17.604"/>
	<rect x="745.914" y="1023.585" fill="#FFFFFF" width="17.604" height="17.604"/>
	<rect x="783.815" y="1023.585" fill="#FFFFFF" width="17.604" height="17.604"/>
	<rect x="708.045" y="1055.639" fill="#FFFFFF" width="17.604" height="17.603"/>
	<rect x="745.946" y="1094.856" fill="#FFFFFF" width="17.604" height="17.603"/>
	<rect x="708.014" y="1094.856" fill="#FFFFFF" width="17.604" height="17.603"/>
	<rect x="783.815" y="1126.878" fill="#FFFFFF" width="17.604" height="17.603"/>
	<polygon fill="#EBEBEB" points="272.16,830.349 272.16,771.998 286.12,771.998 286.12,706.881 297.876,706.881 297.876,677.461 
		321.48,642.592 345.114,677.461 345.114,706.881 356.839,706.881 356.839,771.998 370.829,771.998 370.829,830.349 
		384.973,830.349 384.973,1171.361 258.017,1171.361 258.017,830.349 	"/>
	<rect x="312.662" y="848.533" fill="#FEFEFE" width="17.604" height="17.604"/>
	<rect x="274.793" y="848.533" fill="#FEFEFE" width="17.603" height="17.604"/>
	<rect x="350.594" y="912.609" fill="#FEFEFE" width="17.603" height="17.604"/>
	<rect x="274.793" y="912.609" fill="#FEFEFE" width="17.603" height="17.604"/>
	<rect x="312.662" y="944.662" fill="#FEFEFE" width="17.604" height="17.604"/>
	<rect x="350.594" y="976.685" fill="#FEFEFE" width="17.603" height="17.603"/>
	<rect x="312.662" y="976.685" fill="#FEFEFE" width="17.604" height="17.603"/>
	<rect x="274.793" y="1008.768" fill="#FEFEFE" width="17.603" height="17.604"/>
	<rect x="350.594" y="1040.79" fill="#FEFEFE" width="17.603" height="17.604"/>
	<rect x="312.662" y="1072.813" fill="#FEFEFE" width="17.604" height="17.604"/>
	<rect x="274.793" y="1072.813" fill="#FEFEFE" width="17.603" height="17.604"/>
	<path fill="#E6E6E6" d="M152.857,857.411v313.949h104.731V807.296L152.857,857.411z M190.635,1073.548h-19.563v-19.532h19.563
		V1073.548z M190.635,966.888h-19.563v-19.532h19.563V966.888z M190.635,895.772h-19.563V876.24h19.563V895.772z M232.668,1144.664
		h-19.532v-19.531h19.532V1144.664z M232.668,1038.005h-19.532v-19.532h19.532V1038.005z M232.668,1002.431h-19.532V982.9h19.532
		V1002.431z M232.668,931.345h-19.532v-19.563h19.532V931.345z"/>
	<path fill="#F0F0F0" d="M1242.201,939.856l0.521,231.413h131.213l0.643-231.413h-25.563v-29.42h-81.219v29.42H1242.201z
		 M1267.703,962.021h-17.145v-15.308h17.145V962.021z M1250.957,1017.677v-14.726h16.471v14.726H1250.957z M1267.275,1030.137
		v14.358h-15.98v-14.358H1267.275z M1250.712,990.338v-15.093h16.716v15.093H1250.712z M1300.522,924.273v15.583h-17.48V924.12
		L1300.522,924.273z M1300.522,946.713v15.308h-17.145v-15.308H1300.522z M1283.714,1017.83v-14.726h16.379v14.726H1283.714z
		 M1300.001,1030.29v14.357h-16.012v-14.357H1300.001z M1283.5,990.491v-15.093h16.776v15.093H1283.5z M1333.37,924.426v15.43
		h-17.48V924.12L1333.37,924.426z M1333.37,946.866v15.307h-16.96v-15.307H1333.37z M1316.441,1017.983v-14.725h16.379v14.725
		H1316.441z M1316.716,1030.444h16.012v14.357h-16.012V1030.444z M1316.257,990.645v-15.093h16.746v15.093H1316.257z
		 M1366.25,962.48h-17.145v-15.308h17.175L1366.25,962.48z M1349.259,1018.136v-14.726h16.379v14.726H1349.259z M1349.534,1030.596
		h15.981v14.358h-15.981V1030.596z M1349.137,990.798v-15.093h16.776v15.093H1349.137z M1366.067,1100.734h-17.42v-15.613h17.45
		L1366.067,1100.734z M1348.892,1155.472v-14.817h16.593v14.817H1348.892z M1348.555,1129.388v-15.307h16.991v15.307H1348.555z
		 M1348.188,1075.262v-15.98h17.848v15.98H1348.188z M1333.37,1100.734h-17.419v-15.613h17.419V1100.734z M1315.89,1129.388v-15.307
		h16.991v15.307H1315.89z M1315.461,1075.262v-15.98h17.848v15.98H1315.461z M1283.225,1114.203h16.99v15.308h-16.99V1114.203z
		 M1283.225,1085.12h17.419v15.613h-17.419V1085.12z M1282.704,1059.281h17.848v15.98h-17.817L1282.704,1059.281z
		 M1250.957,1140.655h16.593v14.817h-16.563L1250.957,1140.655z M1250.529,1114.203h16.991v15.308h-16.991V1114.203z
		 M1250.529,1085.12h17.45v15.613h-17.42L1250.529,1085.12z M1250.008,1059.281h17.848v15.98h-17.817L1250.008,1059.281z"/>
	<polygon fill="#F5F5F5" points="1333.156,1140.134 1283.622,1140.134 1283.714,1143.838 1285.092,1143.838 1285.122,1171.361 
		1290.082,1171.361 1290.051,1143.838 1326.788,1143.838 1326.758,1171.361 1331.717,1171.361 1331.748,1143.838 1333.248,1143.838 
			"/>
	<polygon fill="#E6E6E6" points="1308.634,1171.361 1290.296,1171.361 1290.296,1143.838 1308.665,1143.838 	"/>
	<polygon fill="#EBEBEB" points="1326.543,1171.361 1308.205,1171.361 1308.205,1143.838 1326.574,1143.838 	"/>
	<path fill="#F0F0F0" d="M1073.885,939.856l0.551,231.413h131.182l0.734-231.413h-25.563v-29.42h-81.28v29.42H1073.885z
		 M1099.386,962.021h-17.144v-15.308h17.174L1099.386,962.021z M1082.671,1017.677v-14.726h16.378v14.726H1082.671z
		 M1098.957,1030.137v14.358h-16.011v-14.358H1098.957z M1082.426,990.338v-15.093h16.623v15.093H1082.426z M1132.204,924.273
		v15.583h-17.48V924.12L1132.204,924.273z M1132.204,946.713v15.308h-17.174v-15.308H1132.204z M1115.367,1017.83v-14.726h16.378
		v14.726H1115.367z M1131.654,1030.29v14.357h-15.98v-14.357H1131.654z M1115.153,990.491v-15.093h16.776v15.093H1115.153z
		 M1165.054,924.426v15.43h-17.481V924.12L1165.054,924.426z M1165.054,946.866v15.307h-17.021v-15.307H1165.054z
		 M1148.124,1017.983v-14.725h16.378v14.725H1148.124z M1148.4,1030.444h16.011v14.357h-15.98L1148.4,1030.444z M1147.971,990.645
		v-15.093h16.776v15.093H1147.971z M1197.964,962.48h-17.175v-15.308h17.175V962.48z M1180.943,1018.136v-14.726h16.378v14.726
		H1180.943z M1181.218,1030.596h16.011v14.358h-16.011V1030.596z M1180.82,990.798v-15.093h16.777v15.093H1180.82z
		 M1197.781,1100.734h-17.42v-15.613h17.42V1100.734z M1180.575,1155.472v-14.817h16.593v14.817H1180.575z M1180.239,1129.388
		v-15.307h16.99v15.307H1180.239z M1179.871,1075.262v-15.98h17.848v15.98H1179.871z M1165.054,1100.734h-17.42v-15.613h17.45
		L1165.054,1100.734z M1147.573,1129.388v-15.307h16.991v15.307H1147.573z M1147.145,1075.262v-15.98h17.848v15.98H1147.145z
		 M1114.907,1114.203h16.991v15.308h-16.991V1114.203z M1114.907,1085.12h17.42v15.613h-17.42V1085.12z M1114.418,1059.281h17.848
		v15.98h-17.817L1114.418,1059.281z M1082.824,1140.134h16.593v14.817h-16.593V1140.134z M1082.426,1113.683h16.991v15.308h-16.991
		V1113.683z M1082.426,1084.6h17.45v15.613h-17.389L1082.426,1084.6z M1081.936,1058.761h17.849v15.98h-17.817L1081.936,1058.761z"
		/>
	<polygon fill="#F5F5F5" points="1164.839,1140.134 1115.336,1140.134 1115.428,1143.838 1116.806,1143.838 1116.806,1171.361 
		1121.765,1171.361 1121.765,1143.838 1158.502,1143.838 1158.472,1171.361 1163.401,1171.361 1163.462,1143.838 1164.931,1143.838 
			"/>
	<polygon fill="#E6E6E6" points="1140.348,1171.361 1122.01,1171.361 1121.98,1143.838 1140.348,1143.838 	"/>
	<polygon fill="#EBEBEB" points="1158.227,1171.361 1139.889,1171.361 1139.889,1143.838 1158.288,1143.838 	"/>
	<path id="cloud3" fill="#F0F0F0" d="M919.375,529.625l116.119-6.766c4.106-0.239,8.193,0.729,11.756,2.786l0,0
		c38.359,33.247,79.75,11.052,97.966-2.052c6.927-5.013,15.131-7.963,23.664-8.511l129.346-7.53
		c48.523-2.816,56.299-71.454,9.521-84.74l-1.807-0.49c48.248-45.187-68.208-127.783-181.848,2.571
		c7.011-41.665-99.527-20.542-129.1,37.472C981.155,426.303,882.454,496.256,919.375,529.625z"/>
	<path id="cloud2" fill="#F0F0F0" d="M455.753,566.148l-62.882-1.224l-5.234,2.234c-28.795,12.222-61.577,10.735-89.148-4.041l0,0
		l-52.626-1.011c0,0-48.982-19.501-41.544-68.453c7.439-48.952,80.822-6.644,80.822-6.644s-21.186-68.942,50.391-48.125
		s77.301,88.781,77.301,88.781S507.645,513.063,455.753,566.148z"/>
	<path id="cloud1" fill="#F0F0F0" d="M671.216,610.6h171.898c22.042,0,27.339-30.828,6.552-38.084l-0.796-0.245
		c22.991-19.195-27.553-59.605-82.321-3.643c4.285-18.645-44.452-11.909-59.361,13.531
		C701.892,565.444,655.389,594.497,671.216,610.6z"/>
</g>
<g id="shadow">
	<ellipse id="freepik--path--inject-69" fill="#F5F5F5" cx="750.599" cy="1262.499" rx="593.579" ry="34.655"/>
</g>
<g id="heading">
	<path fill="#263238" d="M372.329,260.221l-16.134,49.381H343.95l-10.868-33.432l-11.205,33.432h-12.245l-16.226-49.381h11.848
		l11.144,34.716l11.633-34.716h10.593l11.297,34.992l11.48-34.992H372.329z"/>
	<path fill="#263238" d="M375.024,284.712c0-14.695,11.419-25.532,27.002-25.532c15.582,0,27.002,10.776,27.002,25.532
		s-11.48,25.532-27.002,25.532S375.024,299.468,375.024,284.712z M417.486,284.712c-0.187-8.536-7.257-15.306-15.793-15.12
		c-8.537,0.187-15.306,7.257-15.12,15.794c0.184,8.403,7.047,15.121,15.453,15.123c8.333,0.212,15.26-6.371,15.472-14.704
		C417.507,285.441,417.502,285.076,417.486,284.712z"/>
	<path fill="#263238" d="M469.101,309.479l-9.521-13.746h-10.531v13.746h-11.267v-49.258h21.431c13.194,0,21.43,6.857,21.43,17.909
		c0.281,6.837-3.798,13.104-10.164,15.613l11.082,15.858L469.101,309.479z M458.386,269.405h-9.185v17.205h9.185
		c6.98,0,10.501-3.214,10.501-8.603C468.887,272.619,465.335,269.405,458.386,269.405z"/>
	<path fill="#263238" d="M489.459,260.221h11.45v39.951h24.736v9.185h-36.187V260.221z"/>
	<path fill="#263238" d="M532.074,260.221h22.41c16.164,0,27.246,9.735,27.246,24.705c0,14.971-11.082,24.676-27.246,24.676h-22.41
		V260.221z M553.933,300.019c9.797,0,16.226-5.878,16.226-15.307c0-9.43-6.429-15.308-16.226-15.308h-10.439v30.614H553.933z"/>
	<path fill="#263238" d="M1085.885,259.639h22.349c16.164,0,27.247,9.735,27.247,24.706c0,14.97-11.083,24.675-27.247,24.675
		h-22.349V259.639z M1107.744,299.652c9.796,0,16.225-5.878,16.225-15.307c0-9.43-6.429-15.308-16.225-15.308h-10.439v30.614
		H1107.744z"/>
	<path fill="#263238" d="M1175.952,298.458h-22.93l-4.378,10.562h-11.726l22.012-49.381h11.297l22.072,49.381h-12L1175.952,298.458z
		 M1172.34,289.763l-7.838-18.889l-7.806,18.889H1172.34z"/>
	<path fill="#263238" d="M1218.108,291.539v17.48h-11.419v-17.634l-19.134-31.747h12.246l13.103,22.012l13.164-21.95h11.235
		L1218.108,291.539z"/>
	<path fill="#40AFFF" d="M682.697,290.835c0,11.786-9.337,18.582-27.247,18.582h-35.268v-68.086h33.278
		c17.052,0,25.808,7.134,25.808,17.726c0.104,6.357-3.476,12.203-9.185,15.001C677.692,276.015,682.93,282.982,682.697,290.835z
		 M635.857,253.21v16.194h15.675c7.684,0,11.878-2.725,11.878-8.082s-4.194-7.99-11.878-7.99L635.857,253.21z M666.808,289.242
		c0-5.755-4.378-8.479-12.552-8.479h-18.369v16.838h18.369C662.43,297.601,666.808,295.09,666.808,289.242L666.808,289.242z"/>
	<path fill="#40AFFF" d="M694.666,241.331h15.767v68.147h-15.767V241.331z"/>
	<path fill="#40AFFF" d="M722.311,275.528c0-20.542,15.767-35.236,36.982-35.236c10.728-0.416,21.056,4.095,28.043,12.245
		l-10.134,9.185c-4.2-5.118-10.493-8.056-17.113-7.99c-12.047-0.452-22.179,8.948-22.63,20.995s8.948,22.179,20.995,22.63
		c0.545,0.021,1.09,0.021,1.635,0c6.642,0.07,12.948-2.908,17.113-8.082l10.134,9.185c-6.993,8.194-17.372,12.712-28.135,12.245
		C738.077,310.673,722.311,295.948,722.311,275.528z"/>
	<path fill="#40AFFF" d="M829.981,285.355v24.124h-15.644v-24.491l-26.39-43.809h16.746l18.216,30.277l18.185-30.277h15.491
		L829.981,285.355z"/>
	<path fill="#40AFFF" d="M855.881,275.528c0-20.542,15.766-35.236,37.013-35.236c10.718-0.415,21.037,4.096,28.012,12.245
		l-10.103,9.185c-4.213-5.119-10.516-8.057-17.145-7.99c-12.047,0.451-21.446,10.583-20.995,22.63
		c0.428,11.413,9.582,20.567,20.995,20.995c6.65,0.07,12.967-2.907,17.145-8.082l10.103,9.185
		c-6.987,8.202-17.369,12.722-28.135,12.245C871.647,310.673,855.881,295.948,855.881,275.528z"/>
	<path fill="#40AFFF" d="M931.529,241.331h15.767v55.32h34.195v12.827h-49.962V241.331z"/>
	<path fill="#40AFFF" d="M1043.117,296.957v12.645h-52.779v-68.271h51.493v12.767h-35.818v14.694h31.809v12.246h-31.809v15.919
		H1043.117z"/>
</g>
<g id="earth">
	<path fill="#40AFFF" d="M1170.595,1278.479c-28.165,1.552-56.341,2.96-84.526,4.226c-11.898,0.51-23.827,1-35.787,1.47
		c-113.824,4.489-227.698,6.388-341.624,5.693c-123.763-0.755-247.506-4.582-371.228-11.48
		c25.218-230.072,232.172-396.139,462.244-370.92c195.302,21.407,349.514,175.619,370.921,370.92V1278.479z"/>
	<path opacity="0.3" enable-background="new    " d="M1170.595,1278.479c-28.165,1.552-56.341,2.96-84.526,4.226
		c-11.898,0.51-23.827,1-35.787,1.47c-113.824,4.489-227.698,6.388-341.624,5.693c-123.763-0.755-247.506-4.582-371.228-11.48
		c25.218-230.072,232.172-396.139,462.244-370.92c195.302,21.407,349.514,175.619,370.921,370.92V1278.479z"/>
	<path opacity="0.7" fill="#FFFFFF" enable-background="new    " d="M540.524,1077.038c-4.837-3.674-28.042,4.255-28.104-2.633
		c0-4.593,15.613-17.42,18.553-23.145c4.316-8.48,2.081-20.328,6.122-28.288c2.204-4.377,8.205-14.511,13.134-18.674
		c23.573-19.899,59.514-41.482,89.455-42.86c10.775-0.521,25.563,17.971,27.98,32.39c1.439,8.572,0,34.013-7.562,42.86
		c-11.419,13.439-36.431,13.593-49.717,24.063c-15.491,12.245-22.991,40.839-40.81,50.422c-4.959,2.663-14.389-2.572-17.603-5.297
		C546.034,1100.794,546.126,1081.232,540.524,1077.038z"/>
	<path opacity="0.7" fill="#FFFFFF" enable-background="new    " d="M772.304,1124.888c5.052-0.521,16.195-3.245,19.257-7.776
		c4.959-7.316,6.826-29.358,1.652-35.573c-2.173-2.603-10.316-2.052-13.103,0.214c-3.612,3.062-2.633,15.645-6.122,18.798
		c-3.49,3.153-13.777-1.316-16.899,2.234c-3.123,3.552-3.979,15.124-1.562,18.675
		C757.947,1125.01,767.926,1125.317,772.304,1124.888z"/>
	<path opacity="0.7" fill="#FFFFFF" enable-background="new    " d="M1170.595,1278.479c-28.165,1.552-56.341,2.96-84.526,4.226
		c-1.071-5.113-2.173-10.623-5.081-12.46c-7.194-4.653-31.9-4.898-33.676,1.438c-0.89,4.379,0.147,8.93,2.847,12.49
		c-113.823,4.49-227.698,6.389-341.624,5.694l0.185-0.306c15.307-25.257,48.34-51.064,75.616-60.034
		c15.308-5.082,37.717-6.398,51.738,1.744c5.357,3.062,6.398,19.716,11.205,24.492c6.919,6.704,26.114,14.449,35.573,15.031
		c19.838,1.225,46.84-1.775,61.229-14.664c4.225-3.735,6.552-18.094,4.684-24.124c-2.663-8.603-16.501-24.308-25.104-26.328
		c-7.286-1.776-19.838,12.949-27.063,10.929c-10.194-2.878-16.348-31.471-26.42-33.89c-4.284-0.073-8.314,2.022-10.715,5.571
		c-3.062,7.807,14.572,24.124,11.48,31.9c-2.449,6.123-18.951,15.736-23.849,11.174c-4.011-3.704,8.174-15.307,7.194-20.604
		c-1.316-7.193-11.389-21.43-18.369-22.531c-5.234-0.888-13.041,9.98-18.215,11.266c-6.674,1.684-21.614-5.878-27.277-1.745
		c-4.286,3.062-1.715,17.358-5.939,20.634c-5.939,4.562-23.94,4.93-29.451,0.184c-7.316-6.306-12.031-31.349-5.51-39.125
		c4.929-5.785,24.797,6.123,28.777-0.336c2.816-4.47-8.634-13.379-8.113-18.613c0.582-6.123,8.541-17.021,13.256-20.727
		c6.398-5.051,25.104-3.061,29.818-9.612c4.256-6.123-4.592-25.073,0.582-30.002c4.255-4.041,17.786-0.551,21.797,3.704
		c4.011,4.256,0.153,23.849,5.266,26.267c13.96,6.49,40.87-6.122,47.36-18.368c6.123-11.357,3.612-37.441-6.368-46.84
		c-3.337-3.062-14.235,3.245-17.297,7.194s-0.796,15.797-4.163,18.675c-4.837,4.164-19.501,3.49-24.858,0
		s-11.267-17.695-11.328-24.491c0.395-16.014,5.25-31.6,14.021-45.003c6.307-9.46,26.512-22.287,35.482-21.95
		c18.001,0.704,36.369,19.042,54.064,24.491c3.582,1.102,11.205,0.612,14.939,0.857c10.439,0.643,31.012-4.439,41.788,3.061
		c2.603,1.776,4.898,9.95,7.593,11.358c8.725,4.653,26.083-0.582,28.257-7.96c0.888-3.062-6.123-12.857-5.878-16.286
		c0.812-5.035,3.517-9.569,7.562-12.675C1105.557,1071.531,1158.809,1170.603,1170.595,1278.479z"/>
	<path opacity="0.7" fill="#FFFFFF" enable-background="new    " d="M350.532,1248.723c2.266,0.979,8.848,1.347,11.112-0.46
		c5.358-4.163,0.674-17.817,5.082-22.532c18.675-20.082,56.361-18.674,73.903-40.349c4.898-6.123-2.603-21.798,4.041-26.39
		c20.94-14.45,54.248,15.797,72.586,2.541c10.807-7.838,20.481-34.87,15.308-47.115c-0.919-2.266-12.675,3.214-15.063,1.5
		c-4.775-3.429,3.062-24.645-1.163-26.114c-12.491-4.255-33.339,6.797-46.442,13.96c-3.612,1.99-9.979,9.98-13.5,11.113
		c-7.471,2.357-22.135-2.756-18.186-8.144c8.726-11.939,31.38-15.093,43.87-24.706c10.96-8.479,30.277-26.083,30.032-35.145
		c-0.306-12.246-52.625,1.562-65.697,8.144c-7.715,3.888-24.492,19.96-32.329,23.787c-34.358,47.413-58.35,101.528-70.412,158.826
		C345.756,1242.14,347.287,1247.345,350.532,1248.723z"/>
</g>
<g id="biker">
	<path fill="#263238" d="M580.414,739.914c56.988-1.666,104.538,43.181,106.204,100.17c1.667,56.988-43.181,104.538-100.169,106.204
		c-56.989,1.666-104.538-43.181-106.205-100.17c0-0.001,0-0.002,0-0.003C478.598,789.134,523.435,741.598,580.414,739.914
		 M579.986,725.097c-65.169,1.888-116.469,56.247-114.582,121.416c1.888,65.169,56.247,116.469,121.416,114.582
		c65.166-1.887,116.466-56.242,114.582-121.409l0,0c-1.916-65.164-56.281-116.445-121.446-114.559l0,0L579.986,725.097z"/>
	<path fill="#40AFFF" d="M583.354,952.469c-60.395,0.291-109.589-48.432-109.88-108.826
		c-0.288-59.611,47.222-108.47,106.818-109.852l0,0c60.369-1.758,110.733,45.755,112.491,106.124
		c1.759,60.369-45.755,110.733-106.124,112.492L583.354,952.469z M580.598,746.037c-53.537,1.716-95.639,46.348-94.23,99.894
		c1.562,53.609,46.286,95.802,99.895,94.24s95.801-46.286,94.24-99.895c-1.563-53.608-46.286-95.801-99.895-94.239
		C580.604,746.037,580.601,746.037,580.598,746.037z"/>
	<path fill="#263238" d="M934.865,729.598c56.988-1.685,104.551,43.148,106.235,100.137
		c1.684,56.988-43.149,104.551-100.138,106.234c-56.988,1.685-104.551-43.148-106.234-100.137c-0.001-0.021-0.002-0.043-0.002-0.064
		l0,0c-1.613-56.963,43.21-104.471,100.17-106.17 M934.467,714.781c-65.168,1.904-116.453,56.277-114.549,121.446
		c1.904,65.168,56.277,116.454,121.445,114.549c65.166-1.904,116.45-56.271,114.551-121.438
		c-1.9-65.168-56.27-116.458-121.438-114.559C934.473,714.78,934.471,714.781,934.467,714.781z"/>
	<path fill="#263238" d="M582.894,824.9c10.056-0.301,18.451,7.608,18.751,17.664s-7.608,18.45-17.664,18.75
		c-10.056,0.301-18.45-7.608-18.751-17.663c0-0.006,0-0.011,0-0.016C565.022,833.617,572.881,825.281,582.894,824.9z"/>
	<path fill="#263238" d="M936.794,794.285c-21.261,0.618-37.995,18.354-37.377,39.615s18.354,37.995,39.615,37.377
		c21.261-0.617,37.995-18.354,37.378-39.615c-0.001-0.009-0.001-0.019-0.001-0.027C975.776,810.385,958.044,793.667,936.794,794.285
		z M938.631,857.259c-13.521,0.382-24.792-10.269-25.174-23.789c-0.383-13.521,10.268-24.792,23.788-25.175
		c13.501-0.382,24.763,10.237,25.173,23.737c0.377,13.521-10.278,24.787-23.799,25.164c-0.007,0-0.013,0.001-0.019,0.001
		L938.631,857.259z"/>
	<path opacity="0.5" fill="#FFFFFF" enable-background="new    " d="M936.794,794.285c-21.261,0.618-37.995,18.354-37.377,39.615
		s18.354,37.995,39.615,37.377c21.261-0.617,37.995-18.354,37.378-39.615c-0.001-0.009-0.001-0.019-0.001-0.027
		C975.776,810.385,958.044,793.667,936.794,794.285z M938.631,857.259c-13.521,0.382-24.792-10.269-25.174-23.789
		c-0.383-13.521,10.268-24.792,23.788-25.175c13.501-0.382,24.763,10.237,25.173,23.737c0.377,13.521-10.278,24.787-23.799,25.164
		c-0.007,0-0.013,0.001-0.019,0.001L938.631,857.259z"/>
	<path fill="#263238" d="M582.281,804.602c-21.261,0.619-37.994,18.356-37.375,39.618c0.619,21.261,18.356,37.994,39.617,37.375
		c21.262-0.619,37.995-18.356,37.375-39.617c0-0.029-0.001-0.059-0.002-0.088C621.214,820.672,603.502,804.001,582.281,804.602z
		 M584.088,867.606c-13.521,0.383-24.792-10.268-25.175-23.788c-0.382-13.521,10.269-24.792,23.789-25.175
		c13.501-0.382,24.763,10.237,25.173,23.737c0.411,13.52-10.216,24.813-23.735,25.225
		C584.122,867.605,584.106,867.606,584.088,867.606z"/>
	<path opacity="0.5" fill="#FFFFFF" enable-background="new    " d="M582.281,804.602c-21.261,0.619-37.994,18.356-37.375,39.618
		c0.619,21.261,18.356,37.994,39.617,37.375c21.262-0.619,37.995-18.356,37.375-39.617c0-0.029-0.001-0.059-0.002-0.088
		C621.214,820.672,603.502,804.001,582.281,804.602z M584.088,867.606c-13.521,0.383-24.792-10.268-25.175-23.788
		c-0.382-13.521,10.269-24.792,23.789-25.175c13.501-0.382,24.763,10.237,25.173,23.737c0.411,13.52-10.216,24.813-23.735,25.225
		C584.122,867.605,584.106,867.606,584.088,867.606z"/>
	<path fill="#40AFFF" d="M574.199,833.257L574.199,833.257c1.103-0.337,2.246-0.522,3.398-0.551h0.184h0.215l161.826-17.42
		c12.11-0.542,22.368,8.836,22.91,20.946c0.445,9.931-5.839,18.92-15.318,21.914c-1.699,0.53-3.457,0.85-5.234,0.948l-163.572-1.193
		h-0.184c-6.997,0.192-12.825-5.325-13.017-12.322c-0.155-5.632,3.428-10.69,8.792-12.414 M572.546,827.318
		c-9.553,3.414-14.529,13.926-11.115,23.479c2.604,7.288,9.499,12.162,17.238,12.187l163.786,1.041
		c2.299-0.117,4.572-0.528,6.766-1.225c14.434-4.821,22.226-20.43,17.404-34.863c-3.877-11.605-14.942-19.264-27.17-18.804
		l-162.072,17.45c-1.662,0.033-3.311,0.301-4.897,0.796L572.546,827.318z"/>
	<path fill="#263238" d="M741.996,852.421H741.2c-1.938-0.225-3.62-1.442-4.439-3.214l-57.86-181.42
		c-1.269-2.79-0.035-6.079,2.755-7.348c2.79-1.268,6.079-0.034,7.348,2.756l54.034,172.939l145.662-156.133
		c2.07-2.275,5.595-2.442,7.871-0.371c2.022,1.841,2.41,4.878,0.915,7.168L746.282,850.279
		C745.258,851.613,743.678,852.403,741.996,852.421z"/>
	<path fill="#263238" d="M583.537,846.819c-2.052,0.052-3.761-1.561-3.827-3.612c-0.023-0.547,0.082-1.092,0.306-1.592
		l125.121-95.516c0.719-1.92,2.856-2.893,4.775-2.174s2.893,2.856,2.174,4.775v0.367l-125.12,95.517
		C586.375,845.95,585.026,846.83,583.537,846.819z"/>
	<path fill="#40AFFF" d="M683.064,612.529c0,0-5.419,48.769-1.438,47.942c3.979-0.827,102.098-5.327,102.098-5.327l-38.88,97.292
		l23.206,2.633c0,0,70.412-104.089,64.994-127.784C827.624,603.589,683.064,612.529,683.064,612.529z"/>
	<g opacity="0.3">
		<path d="M683.064,612.529c0,0-5.419,48.769-1.438,47.942c3.979-0.827,102.098-5.327,102.098-5.327l-38.88,97.292l23.206,2.633
			c0,0,70.412-104.089,64.994-127.784C827.624,603.589,683.064,612.529,683.064,612.529z"/>
	</g>
	<path opacity="0.2" enable-background="new    " d="M694.299,640.817l9.185,18.368c16.776-0.735,51.278-2.663,51.278-2.663
		C741.109,645.959,707.188,638.122,694.299,640.817z"/>
	<polygon fill="#FF8B7B" points="735.567,786.509 752.925,784.734 765.508,752.007 749.374,750.782 	"/>
	<polygon opacity="0.2" enable-background="new    " points="765.508,752.037 759.415,767.896 742.854,767.651 749.344,750.782 	"/>
	<polygon fill="#40AFFF" points="772.365,759.936 740.405,758.742 740.772,748.425 774.723,749.159 	"/>
	<path fill="#40AFFF" d="M751.425,780.325l-17.327,0.184c-0.649,0.013-1.206,0.468-1.348,1.102l-3.061,14.113
		c-0.277,1.221,0.487,2.434,1.708,2.711c0.022,0.005,0.045,0.01,0.067,0.014h0.459c6.123-0.184,15.307-0.612,23.113-0.673
		c9.185,0,12.246,0.459,22.839,0.367c6.521,0,8.266-6.674,5.511-7.256c-12.246-2.571-17.512-2.908-28.288-9.398
		C753.996,780.788,752.73,780.388,751.425,780.325z"/>
	<path fill="#40AFFF" d="M762.752,783.295c-1.396,0-2.789-0.123-4.163-0.368c-0.15-0.039-0.267-0.156-0.307-0.306
		c-0.03-0.134,0.032-0.271,0.153-0.337c0.551-0.367,5.572-3.521,7.348-2.755c0.387,0.178,0.646,0.554,0.674,0.979
		c0.098,0.71-0.167,1.423-0.705,1.897C764.872,783.015,763.822,783.325,762.752,783.295z M759.692,782.376
		c1.854,0.517,3.834,0.342,5.571-0.49c0.36-0.336,0.532-0.828,0.459-1.316c-0.001-0.177-0.11-0.334-0.275-0.397
		c-0.857-0.398-3.704,0.979-5.755,2.143V782.376z"/>
	<path fill="#40AFFF" d="M758.651,782.897h-0.245c-0.04-0.108-0.04-0.229,0-0.337c0-0.184,0.214-4.5,1.989-5.97
		c0.419-0.395,0.99-0.584,1.562-0.521l0,0c0.566-0.04,1.087,0.315,1.255,0.857c0.398,1.745-2.633,5.051-4.255,6.123L758.651,782.897
		z M761.711,776.774c-0.316,0.03-0.616,0.159-0.856,0.367c-1.058,1.361-1.658,3.022-1.715,4.745
		c1.562-1.224,3.582-3.796,3.276-4.745c0,0,0-0.306-0.582-0.336l0,0L761.711,776.774z"/>
	<path fill="#40AFFF" d="M937.805,942.121c-60.395-0.307-109.104-49.515-108.798-109.908
		c0.299-58.771,46.997-106.795,105.736-108.738l0,0c60.369-1.768,110.74,45.739,112.507,106.108s-45.74,110.74-106.109,112.507
		L937.805,942.121z M935.049,735.69c-53.604,1.732-95.725,46.467-94.23,100.078c1.545,53.626,46.271,95.846,99.896,94.301
		s95.846-46.271,94.301-99.896s-46.271-95.846-99.896-94.301c-0.023,0-0.047,0.001-0.07,0.002V735.69z"/>
	<path fill="#263238" d="M881.076,664.726l-173.43,77.025c-3.061,0.372-5.843-1.808-6.215-4.867
		c-0.371-3.061,1.808-5.843,4.868-6.215l172.052-74.944L881.076,664.726z"/>
	<path fill="#263238" d="M738.659,925.192l-32.696,0.949c-2.046,0.059-3.752-1.552-3.812-3.598s1.552-3.752,3.598-3.812
		l32.695-0.949c2.046-0.059,3.753,1.552,3.812,3.598C742.316,923.426,740.705,925.132,738.659,925.192L738.659,925.192z"/>
	<path fill="#263238" d="M724.148,922.988c-2.009,0.104-3.722-1.44-3.826-3.45c-0.021-0.385,0.021-0.771,0.122-1.143l29.298-119.027
		c0.663-1.936,2.77-2.967,4.705-2.304c1.701,0.583,2.737,2.303,2.459,4.079L727.608,920.11
		C727.245,921.745,725.823,922.929,724.148,922.988z"/>
	<path fill="#263238" d="M766.365,823.522l-32.727,0.949c-2.047,0.059-3.753-1.552-3.813-3.598
		c-0.059-2.046,1.552-3.752,3.598-3.812l32.727-0.948c2.046-0.06,3.752,1.551,3.812,3.597S768.41,823.462,766.365,823.522
		L766.365,823.522z"/>
	<path fill="#263238" d="M769.457,804.296l-32.696,0.949c-2.046,0.059-3.752-1.552-3.812-3.598
		c-0.059-2.046,1.552-3.752,3.598-3.812l32.695-0.949c2.046-0.059,3.753,1.552,3.812,3.598
		C773.114,802.531,771.503,804.237,769.457,804.296L769.457,804.296z"/>
	<path fill="#263238" d="M939.427,838.032c-0.443,0.163-0.907,0.267-1.378,0.307c-2.544,0.069-4.813-1.594-5.51-4.041
		l-23.972-79.597l-27.063-90.067l-0.429,0.184l-2.725-9.001l6.521-2.847c1.685-0.195,3.364,0.392,4.562,1.592
		c0.691,0.66,1.189,1.496,1.439,2.419l52.35,174.286C944.029,834.182,942.334,837.201,939.427,838.032z"/>
	<path fill="#263238" d="M884.75,652.878l-6.521,2.847l-6.551-21.43c-1.107-2.871,0.322-6.096,3.193-7.203
		c2.641-1.02,5.626,0.104,6.939,2.611l7.501,24.705C888.104,653.231,886.424,652.667,884.75,652.878z"/>
	<path fill="#263238" d="M739.699,836.257l-152.733,3.46c-1.979,0.032-3.556,1.662-3.522,3.64c0,0.021,0.001,0.043,0.002,0.064l0,0
		c0.047,1.912,1.578,3.456,3.489,3.521l155.062,5.479L739.699,836.257z"/>
	<path fill="#40AFFF" d="M877.709,656.766l12.092,38.604c0.307,1.003,1.367,1.567,2.37,1.261c0.006-0.002,0.013-0.003,0.019-0.005
		l9.337-3.062c0.985-0.306,1.536-1.352,1.231-2.337c-0.002-0.007-0.005-0.014-0.007-0.021l-11.878-38.911
		c-0.289-0.989-1.326-1.558-2.316-1.269c-0.045,0.014-0.09,0.028-0.133,0.044l-9.521,3.337
		C877.934,654.743,877.405,655.787,877.709,656.766z"/>
	<polygon fill="#40AFFF" points="873.821,641.122 866.566,617.243 883.985,610.998 886.832,621.774 884.322,637.755 	"/>
	<path fill="#40AFFF" d="M849.697,627.591c-4.227,0.253-7.858-2.968-8.112-7.194c-0.254-4.228,2.967-7.859,7.194-8.113l48.218-5.786
		c4.227-0.507,8.064,2.509,8.571,6.735c0.508,4.227-2.508,8.064-6.735,8.572l0,0l-48.187,5.786
		C850.33,627.621,850.012,627.621,849.697,627.591z"/>
	<path fill="#263238" d="M633.713,652.082c-1.47,0.038-2.631,1.262-2.592,2.732c0.022,0.878,0.478,1.688,1.215,2.166
		c9.184,5.847,24.491,15.644,30.216,19.808c1.573,1.131,3.637,1.318,5.389,0.489l2.51-1.225c16.4-7.932,34.294-12.303,52.504-12.827
		l7.775-0.214c2.908-0.016,5.254-2.385,5.238-5.293c-0.007-1.486-0.643-2.899-1.748-3.892l-3.062-3.062
		c-1.019-0.976-2.386-1.505-3.796-1.47L633.713,652.082z"/>
	<path fill="#40AFFF" d="M738.568,820.827c10.138-0.369,18.655,7.549,19.025,17.687c0.37,10.139-7.549,18.656-17.687,19.026
		s-18.656-7.549-19.025-17.687c-0.004-0.097-0.007-0.193-0.009-0.29l0,0C720.665,829.534,728.542,821.194,738.568,820.827
		 M738.291,811.644c-15.211,0.413-27.207,13.079-26.793,28.291c0.413,15.211,13.08,27.207,28.291,26.794
		c15.211-0.414,27.207-13.08,26.794-28.291c-0.001-0.043-0.003-0.086-0.004-0.129l0,0c-0.467-15.159-13.097-27.091-28.257-26.696
		L738.291,811.644z"/>
	<polygon fill="#FF8B7B" points="702.504,906.7 718.301,905.047 717.382,870.362 701.585,872.015 	"/>
	<path fill="#40AFFF" d="M720.781,901.588l-19.317,0.734c-0.621,0.026-1.148,0.465-1.286,1.071l-2.603,13.44
		c-0.181,1.221,0.662,2.357,1.883,2.538c0.006,0.001,0.011,0.002,0.016,0.003h0.521c6.123-0.337,10.745-0.857,18.368-1.164
		c4.807,0,19.318-0.275,25.931-0.551s7.225-6.46,4.5-6.949c-12.245-2.021-21.644-5.144-25.685-8.297
		C722.441,901.896,721.625,901.606,720.781,901.588z"/>
	<polygon opacity="0.2" enable-background="new    " points="701.585,872.045 717.382,870.392 717.842,888.24 702.045,889.893 	"/>
	<path fill="#40AFFF" d="M684.319,609.651c0,0,42.125,89.394,40.441,133.203c-1.806,48.003-0.336,137.764-0.336,137.764l-27.4,2.847
		c0,0-13.501-85.444-12.245-132.223c1.5-53.238-75.862-112.201-54.126-151.203C656.858,604.385,684.319,609.651,684.319,609.651z"/>
	<g opacity="0.3">
		<path d="M684.319,609.651c0,0,42.125,89.394,40.441,133.203c-1.806,48.003-0.336,137.764-0.336,137.764l-27.4,2.847
			c0,0-13.501-85.444-12.245-132.223c1.5-53.238-75.862-112.201-54.126-151.203C656.858,604.385,684.319,609.651,684.319,609.651z"
			/>
	</g>
	<polygon fill="#40AFFF" points="726.842,883.434 692.921,887.597 691.666,878.045 728.005,872.963 	"/>
	<path fill="#40AFFF" d="M726.138,904.006c-1.396,0.001-2.789-0.122-4.163-0.367c-0.15-0.039-0.268-0.156-0.307-0.306
		c-0.03-0.134,0.032-0.271,0.153-0.337c0.551-0.367,5.571-3.521,7.347-2.756c0.388,0.179,0.646,0.555,0.674,0.98
		c0.098,0.711-0.166,1.423-0.704,1.897C728.258,903.727,727.207,904.037,726.138,904.006z M723.076,903.088
		c1.855,0.517,3.835,0.342,5.572-0.49c0.359-0.336,0.531-0.828,0.459-1.316c-0.001-0.177-0.11-0.334-0.275-0.397
		c-0.857-0.398-3.705,0.979-5.756,2.143V903.088z"/>
	<path fill="#40AFFF" d="M722.035,903.639h-0.244c-0.094-0.088-0.148-0.209-0.153-0.337c0-0.184,0.214-4.5,1.989-5.97
		c0.419-0.394,0.99-0.584,1.562-0.521l0,0c0.566-0.04,1.087,0.315,1.255,0.857c0.398,1.745-2.633,5.052-4.255,5.97H722.035z
		 M725.097,897.516c-0.317,0.03-0.616,0.159-0.856,0.368c-1.059,1.361-1.658,3.021-1.715,4.745c1.562-1.225,3.582-3.797,3.275-4.745
		c0,0,0-0.307-0.581-0.337l0,0L725.097,897.516z"/>
	<path fill="#263238" d="M695.493,478.04l41.451,6.123c23.236,3.459,47.269-8.449,67.352-20.787l9.644,10.072
		c0,0-42.462,31.288-63.463,31.38c-11.909,0-30.615-3.062-44.482-5.909c-8.027-1.596-13.24-9.396-11.645-17.422
		C694.587,480.303,694.971,479.142,695.493,478.04z"/>
	<path fill="#FF8B7B" d="M828.879,445.069c-1.163,6.767-2.296,13.532-3.459,20.328c-3.857,2.449-7.194,5.756-11.052,8.235
		c-4.098-2.403-7.618-5.674-10.317-9.582c0.704-3.062,1.99-6.123,2.694-9.338c1.194-5.234,7.593-8.663,11.112-12.704
		C821.042,442.742,825.726,444.334,828.879,445.069z"/>
	<path fill="#40AFFF" d="M704.31,510.063l31.043-0.826l4.286-28.869c0,0-17.267-3.398-33.461-6.674
		C705.504,483.061,704.984,500.664,704.31,510.063z"/>
	<path opacity="0.1" enable-background="new    " d="M704.31,510.063l31.043-0.826l4.286-28.869c0,0-17.267-3.398-33.461-6.674
		C705.504,483.061,704.984,500.664,704.31,510.063z"/>
	<polygon opacity="0.2" enable-background="new    " points="735.353,509.237 706.422,503.879 706.27,510.094 	"/>
	<path fill="#40AFFF" d="M632.183,488.908c6.123,54.31-1.071,91.139-5.571,124.6c11.051,2.603,32.787,3.552,52.84,2.786
		c11.077-0.785,22.079-2.413,32.91-4.867c-2.051-32.146,2.908-96.436,5.174-123.223c0.624-7.121-4.337-13.522-11.389-14.694h-0.245
		c-2.296-0.368-4.775-0.705-7.347-1.011c-1.47-0.153-3.062-0.306-4.378-0.397c-12.023-0.501-24.065-0.297-36.063,0.611
		c-2.266,0-4.562,0.337-6.797,0.582c-2.234,0.245-4.133,0.49-6.123,0.766l-2.663,0.397c-6.835,1.049-11.526,7.439-10.479,14.275
		c0.003,0.018,0.006,0.035,0.009,0.053L632.183,488.908z"/>
	<path fill="#40AFFF" d="M645.959,508.778c0.337,7.438-5.511,22.838-10.96,32.543c0.367-9.185,0.398-19.165-0.214-29.237
		L645.959,508.778z"/>
	<path opacity="0.2" enable-background="new    " d="M645.959,508.778c0.337,7.438-5.511,22.838-10.96,32.543
		c0.367-9.185,0.398-19.165-0.214-29.237L645.959,508.778z"/>
	<path fill="#FF8B7B" d="M661.082,432.058c2.449,11.572,5.082,32.757-2.908,40.655c6.398,6.123,14.787,13.257,28.563,13.501
		c13.776,0.245,11.174-9.184,7.501-14.112c-13.012-2.878-12.828-12.461-10.716-21.431L661.082,432.058z"/>
	<path opacity="0.2" enable-background="new    " d="M670.205,439.559l13.257,10.959c-0.527,2.098-0.855,4.24-0.98,6.398
		c-5.794-0.914-10.76-4.641-13.256-9.949C667.971,443.569,668.95,440.018,670.205,439.559z"/>
	<path fill="#FF8B7B" d="M650.796,419.414c4.868,14.971,6.95,23.971,16.624,29.787c14.603,8.726,31.563-3.061,31.257-19.256
		c-0.275-14.511-8.174-36.522-24.491-38.758c-11.718-1.665-22.566,6.483-24.232,18.201c-0.479,3.371-0.148,6.808,0.966,10.025
		H650.796z"/>
	<path fill="#263238" d="M660.899,423.18c1.078,2.991,2.398,5.889,3.949,8.664c-3.159-0.973-6.464-1.387-9.766-1.225
		c-1.148,0.122-2.304,0.184-3.459,0.184c-1.135-0.026-2.222-0.461-3.062-1.225c-1.016-1.082-1.356-2.634-0.888-4.041
		c0.461-1.401,1.391-2.602,2.633-3.398c1.331-0.917,2.914-1.398,4.53-1.377C656.368,420.823,660.348,421.68,660.899,423.18z"/>
	<path fill="#263238" d="M657.746,408.026c0,0,1.897,8.021,4.469,15.308c-1.897-0.184-9.949,4.193-9.582,6.612
		c0.857,5.48,6.123,9.827,11.021,12.43c0,1.714-0.245,6.643-0.245,6.643c-3.062,2.235-6.827,3.062-9.949,5.266
		c-1.582,1.265-3.375,2.238-5.297,2.878c-1.946,0.626-4.079,0.171-5.603-1.193c-1.399-1.422-1.382-3.709,0.039-5.109
		c0.066-0.064,0.135-0.127,0.206-0.188c-3.454,0.64-6.89-1.206-8.266-4.438c-1.207-3.401,0.056-7.188,3.062-9.185
		c-2.09,1.193-4.745,0.596-6.123-1.378c-1.166-2.029-1.258-4.502-0.245-6.612c1.026-2.065,2.514-3.867,4.348-5.266
		c-1.254,0.833-2.944,0.506-3.796-0.735c-0.739-1.22-0.991-2.674-0.704-4.071c0.572-4.163,2.774-7.929,6.122-10.47
		c12.767-9.735,36.737-29.39,47.605-12.582l-2.479-0.674c-6.307,1.378-2.816,3.337-6.368,3.826
		C669.085,400.026,662.696,403.161,657.746,408.026z"/>
	<path fill="#FF8B7B" d="M648.5,436.497c2.866,2.724,6.701,4.19,10.654,4.071c5.266-0.184,6.275-5.266,3.489-9.368
		c-2.786-4.102-8.266-8.082-12.857-5.878c-3.313,1.617-4.688,5.612-3.071,8.925C647.14,435.118,647.749,435.886,648.5,436.497z"/>
	<path fill="#263238" d="M674.951,417.577c0.397,1.194,1.255,2.052,2.051,1.837c0.796-0.214,1.193-1.378,0.888-2.602
		c-0.306-1.225-1.225-2.082-2.051-1.868C675.012,415.159,674.645,416.353,674.951,417.577z"/>
	<path fill="#263238" d="M688.82,413.935c0.367,1.225,1.225,2.081,2.051,1.867c0.827-0.214,1.225-1.378,0.888-2.633
		s-1.225-2.051-2.051-1.837C688.88,411.546,688.635,412.71,688.82,413.935z"/>
	<path fill="#FF5652" d="M684.686,415.74c2.412,3.449,5.298,6.541,8.572,9.185c-1.389,1.659-3.438,2.623-5.603,2.633L684.686,415.74
		z"/>
	<path fill="#263238" d="M683.309,432.058c-2.867,0.389-5.768-0.42-8.021-2.234c-0.144-0.144-0.144-0.376,0-0.52
		c0-0.001,0-0.001,0-0.001c0.118-0.145,0.331-0.165,0.475-0.047c0.017,0.014,0.032,0.029,0.046,0.047
		c2.557,1.969,5.894,2.616,9.001,1.745c0.198-0.027,0.39,0.087,0.459,0.275l0,0c0.04,0.201-0.079,0.399-0.275,0.459
		C684.44,431.92,683.876,432.012,683.309,432.058z"/>
	<path fill="#263238" d="M669.471,414.149h-0.367c-0.373-0.168-0.549-0.599-0.398-0.979l0,0c0.863-2.272,2.785-3.977,5.144-4.562
		c0.403-0.057,0.779,0.213,0.857,0.612l0,0c0.076,0.404-0.181,0.796-0.582,0.888l0,0c-1.862,0.46-3.376,1.813-4.041,3.612
		C669.973,413.964,669.739,414.128,669.471,414.149z"/>
	<path fill="#263238" d="M693.748,407.567c-0.25,0.025-0.498-0.065-0.674-0.245c-1.188-1.493-3.022-2.325-4.929-2.234
		c-0.405,0.118-0.831-0.115-0.949-0.521c-0.118-0.406,0.115-0.831,0.521-0.949c0.07-0.021,0.142-0.03,0.215-0.03l0,0
		c2.364-0.117,4.642,0.907,6.122,2.755c0.288,0.286,0.288,0.752,0.002,1.039c-0.001,0.001-0.001,0.001-0.002,0.002l0,0
		C693.976,407.477,693.867,407.541,693.748,407.567z"/>
	<path fill="#263238" d="M647.399,481.836l-45.003,13.104c-25.165,7.316-53.575-2.235-77.546-12.919l-9.185,12.612
		c0,0,51.523,28.227,74.821,25.135c13.226-1.745,33.4-8.082,48.37-13.226c8.653-2.965,13.265-12.383,10.3-21.036
		c-0.442-1.293-1.043-2.525-1.789-3.67H647.399z"/>
	<path fill="#FF8B7B" d="M494.725,465.335l6.889,22.012c4.653,2.144,8.816,5.297,13.47,7.439c4.2-3.293,7.619-7.475,10.012-12.245
		c-1.286-3.398-3.062-6.552-4.409-9.95c-2.112-5.603-9.704-8.449-14.235-12.245C503.052,461.662,498.123,464.112,494.725,465.335z"
		/>
	<path fill="#40AFFF" d="M639.561,475.04c-18.919,6.949-18.827,8.297-38.635,12.001l16.287,37.073c0,0,14.908-1.193,24.858-10.041
		c7.347-6.521,12.889-15.308,10.501-28.257C651.44,479.724,645.377,472.898,639.561,475.04z"/>
	<path opacity="0.1" fill="#FFFFFF" enable-background="new    " d="M639.561,475.04c-18.919,6.949-18.827,8.297-38.635,12.001
		l16.287,37.073c0,0,14.908-1.193,24.858-10.041c7.347-6.521,12.889-15.308,10.501-28.257
		C651.44,479.724,645.377,472.898,639.561,475.04z"/>
</g>
</svg>
